<svg width="236" height="236" viewBox="0 0 236 236" fill="none" xmlns="http://www.w3.org/2000/svg">
<rect width="236" height="236" rx="40" fill="url(#paint0_linear_31_17)"/>
<path d="M75.2887 166C73.811 165.997 72.4023 165.374 71.4064 164.282C70.392 163.199 69.888 161.735 70.021 160.257L71.3115 146.062L130.931 86.4465L149.563 105.078L89.9592 164.688L75.768 165.979C75.6047 165.995 75.4414 166 75.2887 166ZM153.282 101.353L134.656 82.7212L145.828 71.5454C146.817 70.5559 148.157 70 149.555 70C150.953 70 152.294 70.5559 153.282 71.5454L164.455 82.7212C165.444 83.7095 166 85.0507 166 86.4491C166 87.8476 165.444 89.1887 164.455 90.1771L153.288 101.348L153.282 101.353Z" fill="white"/>
<defs>
<linearGradient id="paint0_linear_31_17" x1="7.45437e-07" y1="24.5" x2="253" y2="250.5" gradientUnits="userSpaceOnUse">
<stop stop-color="#3090D6"/>
<stop offset="1" stop-color="#15476B"/>
</linearGradient>
</defs>
</svg>
